<svg id="Layer_2" data-name="Layer 2" xmlns="http://www.w3.org/2000/svg" viewBox="0 0 24 24"><path d="M3.72,5a7.2,7.2,0,0,1,.86-.09H19.34a9.23,9.23,0,0,1,1,.1,1.13,1.13,0,0,1-.17.21L16.74,8.11l-4,3.42a1,1,0,0,1-1,.33,1.25,1.25,0,0,1-.4-.24L6.2,7.15l-2.36-2Z"/><path d="M20.54,19a3.72,3.72,0,0,1-.72.16H4.4a1.46,1.46,0,0,1-.94-.22l.73-.64Q7,16,9.73,13.66l.54-.45a.24.24,0,0,1,.34,0,2.37,2.37,0,0,0,2.79,0,.27.27,0,0,1,.39,0l5.52,4.58,1.24,1Z"/><path d="M9.09,11.94,7.75,13.06Q6,14.5,4.31,15.92l-1.92,1.6c-.17.14-.26.12-.31-.1a4,4,0,0,1-.13-.9c0-3,0-6,0-9a4.88,4.88,0,0,1,.23-1.11c.06-.21.18-.22.35-.08l2.28,2,3.8,3.26Z"/><path d="M14.91,12l6.78-5.84a2.19,2.19,0,0,1,.36,1.26q0,3.94,0,7.89c0,.51,0,1,0,1.52a6.68,6.68,0,0,1-.17.87h-.09Z"/></svg>