<svg id="Layer_2" data-name="Layer 2" xmlns="http://www.w3.org/2000/svg" viewBox="0 0 24 24"><path d="M12,12.33H1.49c-.14,0-.21-.05-.21-.21,0-1.49,0-3,0-4.48A1.84,1.84,0,0,1,3.11,5.91h4c.3,0,.3,0,.29-.31,0-.57,0-1.14,0-1.71a1.08,1.08,0,0,1,1-1.05h6.85a1.25,1.25,0,0,1,.84.23,1.1,1.1,0,0,1,.44.92c0,.56,0,1.13,0,1.69,0,.18,0,.24.23.24,1.36,0,2.71,0,4.06,0a1.82,1.82,0,0,1,1.87,1.82c0,1.24,0,2.47,0,3.71v.67c0,.14-.06.21-.2.22H12Zm0-6.42h2.9c.14,0,.26,0,.26-.19,0-.42,0-.84,0-1.25,0-.17-.07-.22-.23-.22H9.08c-.17,0-.22.07-.22.23,0,.38,0,.77,0,1.15s0,.28.26.28Z"/><path d="M12,21.17H3.21a1.83,1.83,0,0,1-1.93-1.93V14c0-.39,0-.4.4-.4H9c.28,0,.29,0,.29.29,0,.55,0,1.09,0,1.63a.76.76,0,0,0,.8.76l3.79,0a.82.82,0,0,0,.89-.89V13.91c0-.29,0-.3.28-.3h7.43c.19,0,.26.06.26.25,0,1.82,0,3.64,0,5.46a1.81,1.81,0,0,1-1.35,1.78,3.13,3.13,0,0,1-.75.07Z"/><path d="M12,15.1H10.74c-.19,0-.27,0-.26-.25s0-.69,0-1c0-.14.06-.21.2-.21h2.65c.12,0,.19,0,.19.17v1.14c0,.15-.09.18-.22.18Z"/><path d="M12,5.91H9.11c-.26,0-.27,0-.26-.28s0-.77,0-1.15c0-.16.05-.23.22-.23h5.83c.16,0,.23,0,.23.22,0,.41,0,.83,0,1.25,0,.19-.12.19-.26.19Z" fill="#fff"/></svg>