<svg id="Layer_2" data-name="Layer 2" xmlns="http://www.w3.org/2000/svg" viewBox="0 0 24 24"><path d="M17,16.5v1.17a.29.29,0,0,1-.28.28H7.33a.29.29,0,0,1-.28-.28V16.5H6.28a.71.71,0,0,0-.71.71v1.33a1.08,1.08,0,0,0,1.08,1.08h10.7a1.08,1.08,0,0,0,1.08-1.08V17.21a.71.71,0,0,0-.71-.71Z" stroke="#000" stroke-miterlimit="10" stroke-width="0.25"/><path d="M15.18,11.05l-2.33,2.33V5a.6.6,0,0,0-.61-.6h-.48a.6.6,0,0,0-.61.6v8.4L8.82,11.05a.75.75,0,0,0-1.06,0h0a.75.75,0,0,0,0,1.06l3.71,3.71a.75.75,0,0,0,1.06,0l3.71-3.71a.75.75,0,0,0,0-1.06h0A.75.75,0,0,0,15.18,11.05Z" stroke="#000" stroke-miterlimit="10" stroke-width="0.25"/></svg>