<svg id="Layer_2" data-name="Layer 2" xmlns="http://www.w3.org/2000/svg" viewBox="0 0 24 24"><path d="M14.11,4.51l.26.1a1.24,1.24,0,0,1,.76,1.49c-.25,1-.51,2.08-.77,3.12L13.25,13.7l-.6,2.39-.6,2.42a1.21,1.21,0,0,1-1,.94,1.25,1.25,0,0,1-1.5-1.52l.69-2.77c.35-1.44.71-2.89,1.07-4.34.32-1.29.65-2.57,1-3.86.12-.47.24-.94.35-1.42a1.25,1.25,0,0,1,1-1l.08,0Z"/><path d="M23.57,12.58a1.86,1.86,0,0,1-.64.92c-1.14,1-2.28,2-3.41,3l-1.14,1a1.26,1.26,0,0,1-1.74,0,1.24,1.24,0,0,1,0-1.77c.39-.38.82-.73,1.23-1.09l2.28-2,.27-.24a.65.65,0,0,0-.11-.12l-2.2-1.92c-.48-.42-1-.84-1.45-1.28a1.16,1.16,0,0,1-.33-1.22,1.18,1.18,0,0,1,.88-.89,1.3,1.3,0,0,1,1.23.33l2,1.77,2.71,2.38a1.5,1.5,0,0,1,.42.72Z"/><path d="M6.38,17.82a1.13,1.13,0,0,1-.67-.29L4.1,16.13,1.17,13.56a4.15,4.15,0,0,1-.43-.4,1.24,1.24,0,0,1,.1-1.73c.68-.61,1.37-1.2,2.05-1.8L5.62,7.24a1.26,1.26,0,0,1,2.1.62,1.2,1.2,0,0,1-.38,1.23L3.76,12.21c-.15.14-.16.14,0,.27l3.47,3a1.27,1.27,0,0,1-.85,2.3Z"/></svg>