<svg id="Layer_2" data-name="Layer 2" xmlns="http://www.w3.org/2000/svg" viewBox="0 0 24 24"><path d="M23.11,5.24V18.75a.83.83,0,0,1-.87.47H1.68a.71.71,0,0,1-.79-.78Q.91,12,.9,5.5a.63.63,0,0,1,.72-.72H22.18C22.58,4.78,22.93,4.82,23.11,5.24ZM8.61,16c.42.07.74-.08.83-.41a1.33,1.33,0,0,0,0-.4c0-2.15,0-4.3,0-6.45A.64.64,0,0,0,8.81,8H4.21a.62.62,0,0,0-.65.62c0,2.25,0,4.49,0,6.73a.64.64,0,0,0,.86.61V15a1.22,1.22,0,0,1,1.16-1.34,16.37,16.37,0,0,1,2,0,1.06,1.06,0,0,1,.92.66,2.21,2.21,0,0,1,.13.63C8.63,15.28,8.61,15.63,8.61,16ZM16,12.83h3.76a.71.71,0,0,0,.61-.25,1.29,1.29,0,0,0,0-1.12,1.26,1.26,0,0,0-.43-.27.79.79,0,0,0-.31,0l-7.12,0c-.82,0-1,.17-1,1a.64.64,0,0,0,.7.7Zm0-3.16h1.63c.76,0,1.52,0,2.28,0a.57.57,0,0,0,.56-.54c0-.1,0-.21,0-.31,0-.57-.22-.79-.79-.8H12.22a.64.64,0,0,0-.71.71c0,.13,0,.26,0,.38a.57.57,0,0,0,.53.56l.29,0Zm0,4.67H12.13a.56.56,0,0,0-.59.43,2.21,2.21,0,0,0,0,.77c.06.32.33.46.73.46h7.19c.83,0,1-.16,1-1a.61.61,0,0,0-.67-.67Z"/><path d="M8.37,11a1.86,1.86,0,0,1-3.71.06A1.86,1.86,0,1,1,8.37,11Z"/></svg>